<svg xmlns="http://www.w3.org/2000/svg" viewBox="0 0 24 24" fill="currentColor">
  <path d="M12.33 4.3c.28 0 .5.22.5.5v1.94c3.83.65 6.76 3.96 6.76 7.97 0 .3-.16.55-.4.7-.14.1-.34.2-.54.2-.44 0-.87-.36-.87-.9 0-3.03-2.46-5.5-5.45-5.5-3 0-5.45 2.47-5.45 5.5 0 .54-.43.9-.87.9-.2 0-.4-.1-.54-.2-.24-.15-.4-.4-.4-.7 0-4 2.93-7.32 6.76-7.98V4.8c0-.28.22-.5.5-.5zM12 13.5c.83 0 1.5.67 1.5 1.5s-.67 1.5-1.5 1.5-1.5-.67-1.5-1.5.67-1.5 1.5-1.5zm-5.37-3.12c.6-.6 1.54-.6 2.12 0 .6.58.6 1.54 0 2.12-.6.6-1.54.6-2.12 0-.6-.58-.6-1.53 0-2.12zm10.74 0c.6.58.6 1.54 0 2.12-.6.6-1.54.6-2.12 0-.6-.58-.6-1.54 0-2.12.6-.6 1.54-.6 2.12 0z" />
</svg> 