<svg xmlns="http://www.w3.org/2000/svg" viewBox="0 0 512 512" fill="#007aff">
  <path d="M184 0c-13.3 0-24 10.7-24 24V64H128c-17.7 0-32 14.3-32 32v48c0 14.4 9.6 26.3 22.8 30.1C116.3 186.6 112 199.4 112 216c0 13.8 4.3 24.6 11.4 32H80c-26.5 0-48 21.5-48 48v56c0 13.3 10.7 24 24 24s24-10.7 24-24V304c0-8.8 7.2-16 16-16h48c0 15.6 14.9 32 32 32h12c17.7 0 32-14.3 32-32h8c0 17.7 14.3 32 32 32h12c17.1 0 32-16.4 32-32h4c8.8 0 16 7.2 16 16v48c0 13.3 10.7 24 24 24s24-10.7 24-24V304c0-26.5-21.5-48-48-48h-44c8.5-8.2 13.4-20.1 13-33.3C310.2 221.6 320 210.9 320 200c0-12.8-8.4-23.2-21.3-26.5c5.1-8 8.1-17.3 8.1-27.5c0-28.8-23.6-52.3-52.6-52c.2-1 .8-4.3 .8-6c0-30.9-25.1-56-56-56h-16zm32 88c0-13.3 10.7-24 24-24s24 10.7 24 24v48c0 13.3-10.7 24-24 24s-24-10.7-24-24V88zM168 312c0 13.3-10.7 24-24 24s-24-10.7-24-24V264c0-13.3 10.7-24 24-24s24 10.7 24 24v48zm128-48c13.3 0 24 10.7 24 24v48c0 13.3-10.7 24-24 24s-24-10.7-24-24V288c0-13.3 10.7-24 24-24zM176 216c0-13.3 10.7-24 24-24s24 10.7 24 24v48c0 13.3-10.7 24-24 24s-24-10.7-24-24V216zm72-24c13.3 0 24 10.7 24 24v48c0 13.3-10.7 24-24 24s-24-10.7-24-24V216c0-13.3 10.7-24 24-24z"/>
</svg> 