<?xml version="1.0" encoding="UTF-8"?>
<svg width="400" height="200" viewBox="0 0 400 200" xmlns="http://www.w3.org/2000/svg">
  <defs>
    <linearGradient id="brainGradient" x1="0%" y1="0%" x2="100%" y2="100%">
      <stop offset="0%" stop-color="#007aff" stop-opacity="1"/>
      <stop offset="100%" stop-color="#5856d6" stop-opacity="1"/>
    </linearGradient>
  </defs>
  <g fill="none" stroke="url(#brainGradient)" opacity="0.8">
    <!-- First wave pattern (EEG style) -->
    <path d="M0,80 C20,80 25,40 35,40 C45,40 45,120 55,120 C65,120 65,60 75,60 C85,60 85,100 95,100 C105,100 105,70 115,70 C125,70 125,90 135,90 C145,90 145,50 155,50 C165,50 165,110 175,110 C185,110 185,75 195,75 C205,75 205,85 215,85 C225,85 225,55 235,55 C245,55 245,95 255,95 C265,95 265,65 275,65 C285,65 285,115 295,115 C305,115 305,45 315,45 C325,45 325,105 335,105 C345,105 345,75 355,75 C365,75 375,80 400,80" 
          stroke-width="1.5" opacity="0.7"/>
    
    <!-- Second wave pattern (more regular) -->
    <path d="M0,150 C40,150 40,130 80,130 C120,130 120,170 160,170 C200,170 200,110 240,110 C280,110 280,150 320,150 C360,150 360,130 400,130" 
          stroke-width="1.5" opacity="0.8"/>
    
    <!-- Small pulses along the top -->
    <path d="M20,20 L40,20 L45,10 L50,20 L55,30 L60,20 L80,20" 
          stroke-width="1" opacity="0.7"/>
    <path d="M100,20 L120,20 L125,10 L130,20 L135,30 L140,20 L160,20" 
          stroke-width="1" opacity="0.7"/>
    <path d="M180,20 L200,20 L205,10 L210,20 L215,30 L220,20 L240,20" 
          stroke-width="1" opacity="0.7"/>
    <path d="M260,20 L280,20 L285,10 L290,20 L295,30 L300,20 L320,20" 
          stroke-width="1" opacity="0.7"/>
    <path d="M340,20 L360,20 L365,10 L370,20 L375,30 L380,20 L400,20" 
          stroke-width="1" opacity="0.7"/>
  </g>
</svg> 