<?xml version="1.0" encoding="UTF-8"?>
<svg width="500" height="500" viewBox="0 0 500 500" xmlns="http://www.w3.org/2000/svg">
  <defs>
    <linearGradient id="circleGradient1" x1="0%" y1="0%" x2="100%" y2="100%">
      <stop offset="0%" stop-color="#007aff" stop-opacity="0.7"/>
      <stop offset="100%" stop-color="#5856d6" stop-opacity="0.7"/>
    </linearGradient>
    <linearGradient id="circleGradient2" x1="0%" y1="0%" x2="100%" y2="100%">
      <stop offset="0%" stop-color="#5856d6" stop-opacity="0.7"/>
      <stop offset="100%" stop-color="#007aff" stop-opacity="0.7"/>
    </linearGradient>
    <filter id="glow" x="-30%" y="-30%" width="160%" height="160%">
      <feGaussianBlur stdDeviation="5" result="blur" />
      <feComposite in="SourceGraphic" in2="blur" operator="over" />
    </filter>
  </defs>
  
  <g opacity="0.8">
    <!-- Large Analysis Circles -->
    <circle cx="100" cy="100" r="60" fill="none" stroke="url(#circleGradient1)" stroke-width="1" opacity="0.5">
      <animate attributeName="r" values="60;65;60" dur="10s" repeatCount="indefinite"/>
    </circle>
    <circle cx="100" cy="100" r="40" fill="none" stroke="url(#circleGradient1)" stroke-width="1" opacity="0.6">
      <animate attributeName="r" values="40;45;40" dur="8s" repeatCount="indefinite"/>
    </circle>
    <circle cx="100" cy="100" r="20" fill="url(#circleGradient1)" opacity="0.3" filter="url(#glow)"/>
    
    <circle cx="350" cy="250" r="80" fill="none" stroke="url(#circleGradient2)" stroke-width="1" opacity="0.5">
      <animate attributeName="r" values="80;85;80" dur="12s" repeatCount="indefinite"/>
    </circle>
    <circle cx="350" cy="250" r="60" fill="none" stroke="url(#circleGradient2)" stroke-width="1" opacity="0.6">
      <animate attributeName="r" values="60;65;60" dur="10s" repeatCount="indefinite"/>
    </circle>
    <circle cx="350" cy="250" r="30" fill="url(#circleGradient2)" opacity="0.3" filter="url(#glow)"/>
    
    <circle cx="150" cy="400" r="70" fill="none" stroke="url(#circleGradient1)" stroke-width="1" opacity="0.5">
      <animate attributeName="r" values="70;75;70" dur="15s" repeatCount="indefinite"/>
    </circle>
    <circle cx="150" cy="400" r="50" fill="none" stroke="url(#circleGradient1)" stroke-width="1" opacity="0.6">
      <animate attributeName="r" values="50;55;50" dur="12s" repeatCount="indefinite"/>
    </circle>
    <circle cx="150" cy="400" r="25" fill="url(#circleGradient1)" opacity="0.3" filter="url(#glow)"/>
    
    <!-- Data points -->
    <circle cx="85" cy="75" r="2" fill="#007aff" opacity="0.9"/>
    <circle cx="110" cy="130" r="2" fill="#007aff" opacity="0.9"/>
    <circle cx="130" cy="85" r="2" fill="#007aff" opacity="0.9"/>
    <circle cx="70" cy="110" r="2" fill="#007aff" opacity="0.9"/>
    
    <circle cx="320" cy="230" r="2" fill="#5856d6" opacity="0.9"/>
    <circle cx="370" cy="280" r="2" fill="#5856d6" opacity="0.9"/>
    <circle cx="390" cy="210" r="2" fill="#5856d6" opacity="0.9"/>
    <circle cx="330" cy="270" r="2" fill="#5856d6" opacity="0.9"/>
    
    <circle cx="120" cy="380" r="2" fill="#007aff" opacity="0.9"/>
    <circle cx="170" cy="430" r="2" fill="#007aff" opacity="0.9"/>
    <circle cx="190" cy="360" r="2" fill="#007aff" opacity="0.9"/>
    <circle cx="130" cy="420" r="2" fill="#007aff" opacity="0.9"/>
    
    <!-- Connecting lines -->
    <path d="M85,75 L110,130 L130,85 L70,110 Z" fill="none" stroke="url(#circleGradient1)" stroke-width="0.5" opacity="0.6"/>
    <path d="M320,230 L370,280 L390,210 L330,270 Z" fill="none" stroke="url(#circleGradient2)" stroke-width="0.5" opacity="0.6"/>
    <path d="M120,380 L170,430 L190,360 L130,420 Z" fill="none" stroke="url(#circleGradient1)" stroke-width="0.5" opacity="0.6"/>
  </g>
</svg> 