<?xml version="1.0" encoding="UTF-8"?>
<svg width="200" height="200" viewBox="0 0 200 200" xmlns="http://www.w3.org/2000/svg">
  <defs>
    <linearGradient id="nodeGradient" x1="0%" y1="0%" x2="100%" y2="100%">
      <stop offset="0%" stop-color="#007aff" stop-opacity="1"/>
      <stop offset="100%" stop-color="#5856d6" stop-opacity="1"/>
    </linearGradient>
    <linearGradient id="lineGradient" x1="0%" y1="0%" x2="100%" y2="0%">
      <stop offset="0%" stop-color="#007aff" stop-opacity="0.8"/>
      <stop offset="100%" stop-color="#5856d6" stop-opacity="0.8"/>
    </linearGradient>
    <filter id="glow" x="-20%" y="-20%" width="140%" height="140%">
      <feGaussianBlur stdDeviation="2" result="blur" />
      <feComposite in="SourceGraphic" in2="blur" operator="over" />
    </filter>
  </defs>
  <g stroke="url(#lineGradient)" opacity="0.8">
    <!-- Nodes -->
    <circle cx="40" cy="40" r="5" fill="url(#nodeGradient)" stroke="none" opacity="0.9"/>
    <circle cx="160" cy="60" r="3" fill="url(#nodeGradient)" stroke="none" opacity="0.9"/>
    <circle cx="100" cy="100" r="6" fill="url(#nodeGradient)" stroke="none" opacity="0.9"/>
    <circle cx="40" cy="150" r="4" fill="url(#nodeGradient)" stroke="none" opacity="0.9"/>
    <circle cx="180" cy="140" r="5" fill="url(#nodeGradient)" stroke="none" opacity="0.9"/>
    <circle cx="140" cy="180" r="3" fill="url(#nodeGradient)" stroke="none" opacity="0.9"/>
    <circle cx="70" cy="170" r="4" fill="url(#nodeGradient)" stroke="none" opacity="0.9"/>
    <circle cx="120" cy="30" r="3" fill="url(#nodeGradient)" stroke="none" opacity="0.9"/>
    <circle cx="180" cy="30" r="2" fill="url(#nodeGradient)" stroke="none" opacity="0.9"/>
    <circle cx="20" cy="100" r="3" fill="url(#nodeGradient)" stroke="none" opacity="0.9"/>
    <circle cx="170" cy="100" r="4" fill="url(#nodeGradient)" stroke="none" opacity="0.9"/>

    <!-- Connections -->
    <path d="M40,40 L100,100 L160,60" stroke-width="1" opacity="0.7" fill="none"/>
    <path d="M100,100 L40,150 L70,170 L140,180" stroke-width="1" opacity="0.7" fill="none"/>
    <path d="M100,100 L180,140 L170,100" stroke-width="1" opacity="0.7" fill="none"/>
    <path d="M100,100 L120,30 L180,30" stroke-width="1" opacity="0.7" fill="none"/>
    <path d="M20,100 L100,100" stroke-width="1" opacity="0.7" fill="none"/>
    
    <!-- Animated pulses -->
    <circle cx="100" cy="100" r="15" opacity="0.3" fill="url(#nodeGradient)" filter="url(#glow)">
      <animate attributeName="r" values="10;25;10" dur="4s" repeatCount="indefinite"/>
      <animate attributeName="opacity" values="0.2;0.4;0.2" dur="4s" repeatCount="indefinite"/>
    </circle>
  </g>
</svg> 